# xmcd
#
# Track frame offsets:
#	150
#	13343
#	25954
#	38060
#	52547
#	70038
#	89067
#	105071
#	119946
#	141709
#
# Disc length: 2060 seconds
#
# Revision: 0
# Processed by: cddbd v1.5.1PL0 Copyright (c) Steve Scherf et al.
# Submitted via: dBpowerAMP V4.0
#
DISCID=88080a0a
DTITLE=Various Artist - Classic Soul Hits [CD 3 - We Are Family)
DYEAR=2005
DGENRE=Soul
TTITLE0=When A Man Loves A Woman - Percy Sledge
TTITLE1=My Guy - Mary Wells
TTITLE2=The Great Pretender - Platters
TTITLE3=We Are Family - Sister Sledge
TTITLE4=I'll Be Good To You (Live) - Brothers Johnson
TTITLE5=Sex Machine (Live) - James Brown
TTITLE6=The Love I Lost - Harold Melvin and The Bluenotes
TTITLE7=Didn't I (Blow Your Mind This Time) - Delfonics
TTITLE8=Love T.K.O. - Teddy Pendergrass
TTITLE9=I Thank You - Sam and Dave
EXTD=
EXTT0=
EXTT1=
EXTT2=
EXTT3=
EXTT4=
EXTT5=
EXTT6=
EXTT7=
EXTT8=
EXTT9=
PLAYORDER=
